# xmcd
# 
# Track frame offsets:
#     150
#     14381
#     26207
#     37707
#     51548
#     62512
#     74740
#     87436
#     102423
#     115107
#     126553
#     140484
#     153233
#     166357
#     179203
#     189517
# 
# Disc length: 2678
# 
# Revision: 2
# Processed by: cddbd v1.5.2PL0 Copyright (c) Steve Scherf et al.
# Submitted via: fre:ac v1.1beta1pre5
# 
DISCID=ec0a7410
DTITLE=Ray Charles - The Album - CD 2
DYEAR=2003
DGENRE=Jazz
TTITLE0=Walkin' and Talkin'
TTITLE1=If I give you my Love?
TTITLE2=What have I done?
TTITLE3=Misery in my heart
TTITLE4=A sentimental blues
TTITLE5=Honey honey
TTITLE6=Blues before sunrise
TTITLE7=I'm wondering and wondering
TTITLE8=You never miss
TTITLE9=Let's have a ball
TTITLE10=Late in the evening
TTITLE11=The snow is falling
TTITLE12=Baby won't you please come home
TTITLE13=Don't put all your dreams in a basket
TTITLE14=Sittin' on top of the world
TTITLE15=Back home
EXTD=YEAR: 2003
EXTT0=
EXTT1=
EXTT2=
EXTT3=
EXTT4=
EXTT5=
EXTT6=
EXTT7=
EXTT8=
EXTT9=
EXTT10=
EXTT11=
EXTT12=
EXTT13=
EXTT14=
EXTT15=
PLAYORDER=
